<svg width="65" height="24" viewBox="0 0 65 24" fill="none" xmlns="http://www.w3.org/2000/svg">
<path d="M43.008 6.984C42.784 7.672 42.352 8.2 41.712 8.568C41.072 8.936 40.272 9.12 39.312 9.12C38.56 9.12 37.76 9.056 36.912 8.928C36.08 8.784 35.256 8.608 34.44 8.4C34.264 8.848 34.128 9.32 34.032 9.816C33.952 10.296 33.864 10.824 33.768 11.4C33.784 11.4 33.856 11.408 33.984 11.424C34.128 11.44 34.264 11.456 34.392 11.472C34.536 11.488 34.608 11.496 34.608 11.496C34.928 11.544 35.248 11.568 35.568 11.568C35.776 11.568 35.96 11.552 36.12 11.52C36.216 11.504 36.344 11.44 36.504 11.328C36.68 11.2 36.768 11.128 36.768 11.112V10.632C36.768 10.456 36.8 10.368 36.864 10.368C36.912 10.368 36.984 10.408 37.08 10.488C37.208 10.568 37.28 10.656 37.296 10.752C37.328 10.848 37.344 10.992 37.344 11.184C37.344 11.408 37.216 11.592 36.96 11.736C36.72 11.88 36.424 11.984 36.072 12.048C35.72 12.112 35.384 12.144 35.064 12.144C34.952 12.144 34.84 12.144 34.728 12.144C34.616 12.128 34.52 12.112 34.44 12.096L33.672 12.072C33.672 12.104 33.664 12.136 33.648 12.168C33.648 12.2 33.648 12.24 33.648 12.288C33.456 13.344 33.216 14.416 32.928 15.504C32.656 16.592 32.28 17.584 31.8 18.48C31.32 19.376 30.696 20.056 29.928 20.52C29.592 20.712 29.272 20.912 28.968 21.12C28.68 21.328 28.352 21.504 27.984 21.648C27.632 21.792 27.176 21.864 26.616 21.864C25.896 21.864 25.352 21.728 24.984 21.456C24.632 21.2 24.392 20.832 24.264 20.352C24.152 19.872 24.096 19.304 24.096 18.648C24.096 18.536 24.12 18.328 24.168 18.024C24.232 17.72 24.296 17.416 24.36 17.112C24.44 16.808 24.512 16.6 24.576 16.488C24.688 16.232 24.88 15.912 25.152 15.528C25.44 15.144 25.768 14.76 26.136 14.376C26.504 13.992 26.88 13.672 27.264 13.416C27.648 13.16 28 13.032 28.32 13.032C28.448 13.032 28.592 13.136 28.752 13.344C28.928 13.536 29.08 13.76 29.208 14.016C29.336 14.272 29.4 14.488 29.4 14.664C29.4 14.728 29.368 14.88 29.304 15.12C29.256 15.344 29.152 15.6 28.992 15.888C28.832 16.16 28.592 16.4 28.272 16.608C28.208 16.624 28.144 16.632 28.08 16.632C28.032 16.632 27.976 16.632 27.912 16.632C27.464 16.632 27.24 16.544 27.24 16.368C27.24 16.224 27.384 16.096 27.672 15.984C27.96 15.856 28.176 15.784 28.32 15.768C28.48 15.752 28.584 15.688 28.632 15.576C28.68 15.448 28.704 15.176 28.704 14.76C28.704 14.68 28.68 14.56 28.632 14.4C28.6 14.24 28.552 14.088 28.488 13.944C28.44 13.8 28.384 13.728 28.32 13.728C28.048 13.728 27.776 13.848 27.504 14.088C27.248 14.328 27.008 14.624 26.784 14.976C26.56 15.328 26.36 15.68 26.184 16.032C26.008 16.368 25.88 16.648 25.8 16.872C25.768 16.968 25.712 17.128 25.632 17.352C25.552 17.56 25.48 17.776 25.416 18C25.352 18.208 25.32 18.368 25.32 18.48C25.32 18.688 25.312 18.904 25.296 19.128C25.296 19.336 25.296 19.528 25.296 19.704C25.296 20.136 25.368 20.488 25.512 20.76C25.672 21.032 26.04 21.168 26.616 21.168C27.112 21.168 27.52 21.08 27.84 20.904C28.176 20.712 28.464 20.488 28.704 20.232C28.96 19.96 29.208 19.696 29.448 19.44C30.424 18.448 31.192 17.336 31.752 16.104C32.312 14.856 32.712 13.504 32.952 12.048V12H32.808C32.76 12.016 32.712 12.032 32.664 12.048C32.632 12.048 32.592 12.048 32.544 12.048C32.464 12.048 32.376 12.048 32.28 12.048C32.184 12.032 32.088 12.024 31.992 12.024C31.88 12.024 31.752 12.04 31.608 12.072C31.48 12.104 31.328 12.176 31.152 12.288C31.136 12.304 31.08 12.376 30.984 12.504C30.888 12.632 30.84 12.712 30.84 12.744V12.912C30.84 13.104 30.896 13.256 31.008 13.368C31.104 13.464 31.152 13.568 31.152 13.68C31.152 13.792 31.104 13.888 31.008 13.968C30.928 14.048 30.832 14.088 30.72 14.088C30.608 14.088 30.512 14.048 30.432 13.968C30.272 13.792 30.136 13.6 30.024 13.392C29.928 13.184 29.88 12.936 29.88 12.648C29.88 12.472 29.952 12.32 30.096 12.192C30.256 12.048 30.368 11.96 30.432 11.928C30.848 11.64 31.264 11.496 31.68 11.496C32.096 11.48 32.56 11.432 33.072 11.352C33.184 10.744 33.304 10.192 33.432 9.696C33.576 9.2 33.752 8.736 33.96 8.304C33.16 8.08 32.384 7.848 31.632 7.608C30.88 7.368 30.2 7.16 29.592 6.984C29.256 6.872 28.968 6.768 28.728 6.672C28.504 6.56 28.152 6.504 27.672 6.504C27.32 6.504 26.968 6.552 26.616 6.648C26.28 6.728 26.112 6.936 26.112 7.272C26.112 7.368 26.104 7.48 26.088 7.608C26.088 7.736 26.088 7.864 26.088 7.992C26.088 8.296 26.128 8.608 26.208 8.928C26.288 9.232 26.456 9.496 26.712 9.72C26.968 9.928 27.368 10.048 27.912 10.08C28.136 10.096 28.312 10.048 28.44 9.936C28.584 9.824 28.704 9.712 28.8 9.6C28.864 9.44 28.984 9.36 29.16 9.36C29.32 9.36 29.4 9.472 29.4 9.696C29.4 9.744 29.392 9.792 29.376 9.84C29.376 9.888 29.368 9.944 29.352 10.008C29.192 10.2 29 10.384 28.776 10.56C28.568 10.72 28.28 10.8 27.912 10.8C27.64 10.8 27.328 10.752 26.976 10.656C26.64 10.544 26.312 10.352 25.992 10.08C25.672 9.792 25.416 9.4 25.224 8.904C25.048 8.392 24.984 7.744 25.032 6.96C25.064 6.64 25.184 6.336 25.392 6.048C25.616 5.76 25.888 5.528 26.208 5.352C26.544 5.16 26.872 5.064 27.192 5.064C27.448 5.064 27.768 5.104 28.152 5.184C28.536 5.264 28.928 5.368 29.328 5.496C29.744 5.608 30.12 5.72 30.456 5.832C30.808 5.944 31.08 6.024 31.272 6.072C31.784 6.232 32.304 6.432 32.832 6.672C33.36 6.896 33.904 7.128 34.464 7.368C34.512 7.272 34.584 7.16 34.68 7.032C34.856 6.792 35.032 6.672 35.208 6.672C35.288 6.672 35.328 6.712 35.328 6.792C35.328 6.936 35.216 7.128 34.992 7.368C34.96 7.416 34.92 7.464 34.872 7.512C35.592 7.8 36.336 8.048 37.104 8.256C37.888 8.464 38.696 8.568 39.528 8.568C41.064 8.568 42.024 8.032 42.408 6.96C42.424 6.544 42.512 6.336 42.672 6.336C42.752 6.336 42.824 6.4 42.888 6.528C42.968 6.656 43.008 6.808 43.008 6.984ZM39.6233 16.488C39.6233 16.824 39.5513 17.264 39.4073 17.808C39.2633 18.352 39.0713 18.864 38.8313 19.344C38.6073 19.84 38.3513 20.208 38.0633 20.448C37.7913 20.672 37.5273 20.832 37.2713 20.928C37.0153 21.008 36.8073 21.088 36.6473 21.168C36.5833 21.184 36.5113 21.2 36.4313 21.216C36.3673 21.248 36.2953 21.264 36.2153 21.264C35.8953 21.264 35.6473 21.176 35.4713 21C35.4073 20.936 35.3033 20.872 35.1593 20.808C35.0313 20.744 34.9113 20.632 34.7993 20.472C34.6873 20.312 34.6313 20.048 34.6313 19.68C34.6313 19.296 34.6793 18.928 34.7753 18.576C34.4873 18.24 34.3433 17.872 34.3433 17.472C34.3433 17.232 34.3993 17 34.5113 16.776C34.8153 16.2 35.1993 15.752 35.6633 15.432C36.1273 15.112 36.5673 14.888 36.9833 14.76C37.4153 14.632 37.7113 14.568 37.8713 14.568C38.4633 14.568 38.9033 14.76 39.1913 15.144C39.4793 15.528 39.6233 15.976 39.6233 16.488ZM38.6393 16.608C38.6393 16.24 38.5113 15.936 38.2553 15.696C38.0153 15.456 37.7113 15.336 37.3433 15.336C37.0393 15.336 36.7273 15.432 36.4073 15.624C36.1033 15.8 35.8393 16.024 35.6152 16.296C35.3913 16.568 35.2473 16.832 35.1833 17.088C35.1673 17.184 35.1513 17.272 35.1353 17.352C35.1353 17.432 35.1353 17.512 35.1353 17.592C35.3113 17.208 35.4953 16.888 35.6873 16.632C35.8953 16.376 36.0473 16.216 36.1433 16.152C36.2233 16.088 36.3273 16.056 36.4553 16.056C36.6313 16.056 36.7193 16.104 36.7193 16.2C36.7193 16.264 36.6313 16.384 36.4553 16.56C36.2953 16.72 36.1113 16.936 35.9033 17.208C35.6953 17.464 35.5193 17.784 35.3753 18.168C35.5033 18.328 35.6713 18.448 35.8793 18.528C36.1033 18.592 36.3193 18.624 36.5273 18.624C36.7513 18.624 36.9593 18.584 37.1513 18.504C37.3593 18.408 37.4953 18.28 37.5592 18.12C37.5753 18.072 37.5833 18.032 37.5833 18C37.5993 17.952 37.6073 17.912 37.6073 17.88C37.6073 17.72 37.5353 17.624 37.3913 17.592C37.2632 17.544 37.1353 17.528 37.0073 17.544H36.9593C36.7833 17.544 36.6953 17.504 36.6953 17.424C36.6953 17.376 36.7113 17.328 36.7433 17.28C36.7913 17.232 36.8313 17.192 36.8633 17.16C36.9593 17.064 37.0633 17.016 37.1753 17.016C37.3353 17.016 37.5113 17.12 37.7033 17.328C37.8793 17.568 37.9673 17.8 37.9673 18.024C37.9673 18.312 37.8233 18.536 37.5353 18.696C37.2633 18.856 36.9593 18.968 36.6233 19.032C36.2873 19.096 36.0313 19.128 35.8553 19.128C35.5993 19.128 35.3913 19.072 35.2313 18.96C35.2153 18.992 35.2073 19.064 35.2073 19.176C35.2073 19.624 35.3273 19.928 35.5673 20.088C35.8073 20.232 36.0073 20.344 36.1673 20.424C36.2633 20.456 36.3433 20.472 36.4073 20.472C36.6313 20.472 36.8633 20.376 37.1033 20.184C37.3593 19.992 37.5833 19.728 37.7753 19.392C37.9193 19.136 38.0553 18.832 38.1833 18.48C38.3113 18.128 38.4153 17.784 38.4953 17.448C38.5913 17.096 38.6393 16.816 38.6393 16.608ZM45.4358 16.488C45.4358 16.824 45.3638 17.264 45.2198 17.808C45.0758 18.352 44.8838 18.864 44.6438 19.344C44.4198 19.84 44.1638 20.208 43.8758 20.448C43.6038 20.672 43.3398 20.832 43.0838 20.928C42.8278 21.008 42.6198 21.088 42.4598 21.168C42.3958 21.184 42.3238 21.2 42.2438 21.216C42.1798 21.248 42.1078 21.264 42.0278 21.264C41.7078 21.264 41.4598 21.176 41.2838 21C41.2198 20.936 41.1158 20.872 40.9718 20.808C40.8438 20.744 40.7238 20.632 40.6118 20.472C40.4998 20.312 40.4438 20.048 40.4438 19.68C40.4438 19.296 40.4918 18.928 40.5878 18.576C40.2998 18.24 40.1558 17.872 40.1558 17.472C40.1558 17.232 40.2118 17 40.3238 16.776C40.6278 16.2 41.0118 15.752 41.4758 15.432C41.9398 15.112 42.3798 14.888 42.7958 14.76C43.2278 14.632 43.5238 14.568 43.6838 14.568C44.2758 14.568 44.7158 14.76 45.0038 15.144C45.2918 15.528 45.4358 15.976 45.4358 16.488ZM44.4518 16.608C44.4518 16.24 44.3238 15.936 44.0678 15.696C43.8278 15.456 43.5238 15.336 43.1558 15.336C42.8518 15.336 42.5398 15.432 42.2198 15.624C41.9158 15.8 41.6518 16.024 41.4277 16.296C41.2038 16.568 41.0598 16.832 40.9958 17.088C40.9798 17.184 40.9638 17.272 40.9478 17.352C40.9478 17.432 40.9478 17.512 40.9478 17.592C41.1238 17.208 41.3078 16.888 41.4998 16.632C41.7078 16.376 41.8598 16.216 41.9558 16.152C42.0358 16.088 42.1398 16.056 42.2678 16.056C42.4438 16.056 42.5318 16.104 42.5318 16.2C42.5318 16.264 42.4438 16.384 42.2678 16.56C42.1078 16.72 41.9238 16.936 41.7158 17.208C41.5078 17.464 41.3318 17.784 41.1878 18.168C41.3158 18.328 41.4838 18.448 41.6918 18.528C41.9158 18.592 42.1318 18.624 42.3398 18.624C42.5638 18.624 42.7718 18.584 42.9638 18.504C43.1718 18.408 43.3078 18.28 43.3717 18.12C43.3878 18.072 43.3958 18.032 43.3958 18C43.4118 17.952 43.4198 17.912 43.4198 17.88C43.4198 17.72 43.3478 17.624 43.2038 17.592C43.0757 17.544 42.9478 17.528 42.8198 17.544H42.7718C42.5958 17.544 42.5078 17.504 42.5078 17.424C42.5078 17.376 42.5238 17.328 42.5558 17.28C42.6038 17.232 42.6438 17.192 42.6758 17.16C42.7718 17.064 42.8758 17.016 42.9878 17.016C43.1478 17.016 43.3238 17.12 43.5158 17.328C43.6918 17.568 43.7798 17.8 43.7798 18.024C43.7798 18.312 43.6358 18.536 43.3478 18.696C43.0758 18.856 42.7718 18.968 42.4358 19.032C42.0998 19.096 41.8438 19.128 41.6678 19.128C41.4118 19.128 41.2038 19.072 41.0438 18.96C41.0278 18.992 41.0198 19.064 41.0198 19.176C41.0198 19.624 41.1398 19.928 41.3798 20.088C41.6198 20.232 41.8198 20.344 41.9798 20.424C42.0758 20.456 42.1558 20.472 42.2198 20.472C42.4438 20.472 42.6758 20.376 42.9158 20.184C43.1718 19.992 43.3958 19.728 43.5878 19.392C43.7318 19.136 43.8678 18.832 43.9958 18.48C44.1238 18.128 44.2278 17.784 44.3078 17.448C44.4038 17.096 44.4518 16.816 44.4518 16.608ZM56.3363 7.776C56.1603 8.8 55.8883 9.8 55.5203 10.776C55.1523 11.736 54.7443 12.64 54.2963 13.488C53.8483 14.32 53.4163 15.08 53.0003 15.768C52.5843 16.44 52.2403 17 51.9683 17.448C51.7123 17.88 51.5843 18.168 51.5843 18.312C51.5843 18.312 51.6003 18.408 51.6323 18.6C51.6643 18.792 51.7203 19.016 51.8003 19.272C51.8803 19.512 51.9843 19.728 52.1123 19.92C52.2403 20.112 52.3923 20.208 52.5683 20.208C52.7923 20.208 53.0403 20.136 53.3123 19.992C53.6003 19.832 53.8243 19.688 53.9843 19.56C54.3043 19.288 54.5043 19.152 54.5843 19.152C54.6323 19.152 54.6563 19.176 54.6563 19.224C54.6563 19.288 54.6163 19.392 54.5363 19.536C54.4563 19.68 54.3763 19.784 54.2963 19.848C54.0403 20.072 53.7763 20.288 53.5043 20.496C53.2483 20.688 52.9843 20.784 52.7122 20.784C52.2803 20.784 51.9443 20.656 51.7043 20.4C51.4643 20.128 51.2883 19.832 51.1763 19.512C51.0643 19.192 50.9683 18.944 50.8883 18.768C50.4883 18.944 50.1363 19.136 49.8323 19.344C49.5443 19.552 49.2643 19.728 48.9923 19.872C48.7203 20.016 48.4163 20.088 48.0803 20.088C47.5203 20.088 47.0323 19.904 46.6163 19.536C46.2003 19.152 45.9923 18.736 45.9923 18.288C45.9923 17.424 46.1763 16.728 46.5443 16.2C46.9283 15.672 47.4163 15.288 48.0083 15.048C48.6003 14.792 49.2003 14.664 49.8083 14.664C50.2243 14.664 50.6083 14.712 50.9603 14.808C51.2003 13.944 51.4083 13.256 51.5843 12.744C51.7603 12.216 51.9363 11.744 52.1123 11.328C52.3043 10.896 52.5203 10.408 52.7603 9.864C52.9843 9.32 53.2563 8.776 53.5763 8.232C53.9123 7.672 54.2803 7.144 54.6803 6.648C54.8243 6.456 54.9683 6.296 55.1123 6.168C55.2723 6.04 55.4563 5.976 55.6643 5.976C55.9683 5.976 56.1683 6.08 56.2643 6.288C56.3603 6.48 56.4083 6.712 56.4083 6.984C56.4083 7.272 56.3843 7.536 56.3363 7.776ZM55.7603 7.392C55.5523 7.552 55.2403 7.944 54.8243 8.568C54.4243 9.176 54.0323 9.872 53.6483 10.656C53.3603 11.264 53.0723 11.88 52.7843 12.504C52.4963 13.112 52.2483 13.648 52.0403 14.112C51.8323 14.576 51.6883 14.888 51.6083 15.048C51.7203 15.16 51.7763 15.384 51.7763 15.72C51.7763 16.056 51.7283 16.416 51.6323 16.8C51.7123 16.688 51.9203 16.368 52.2563 15.84C52.5923 15.312 52.9763 14.664 53.4083 13.896C53.8563 13.128 54.2563 12.336 54.6083 11.52C54.7683 11.136 54.9363 10.68 55.1123 10.152C55.2883 9.624 55.4403 9.112 55.5683 8.616C55.6963 8.104 55.7603 7.696 55.7603 7.392ZM50.5763 16.488C50.5923 16.36 50.6083 16.24 50.6243 16.128C50.6403 16.016 50.6483 15.92 50.6483 15.84C50.6483 15.648 50.5923 15.544 50.4803 15.528C50.3363 15.48 50.2003 15.456 50.0723 15.456C49.6243 15.456 49.2003 15.64 48.8003 16.008C48.4163 16.376 48.0643 16.792 47.7443 17.256C47.6803 17.352 47.6003 17.528 47.5043 17.784C47.4243 18.04 47.3843 18.304 47.3843 18.576C47.3843 18.784 47.4243 18.976 47.5043 19.152C47.5843 19.312 47.7203 19.432 47.9123 19.512C47.9443 19.528 48.0083 19.536 48.1043 19.536C48.3283 19.536 48.6003 19.448 48.9203 19.272C49.2403 19.096 49.5443 18.864 49.8323 18.576C50.1363 18.272 50.3523 17.944 50.4803 17.592C50.5443 17.432 50.5683 17.256 50.5523 17.064C50.5523 16.872 50.5603 16.68 50.5763 16.488ZM60.4783 8.304C60.5583 8.368 60.6063 8.48 60.6223 8.64C60.6543 8.8 60.6703 8.968 60.6703 9.144C60.6703 9.352 60.6463 9.56 60.5983 9.768C60.5663 9.976 60.5103 10.12 60.4303 10.2C60.3343 10.296 60.2223 10.344 60.0943 10.344C59.9823 10.344 59.8703 10.32 59.7583 10.272C59.6463 10.224 59.5263 10.168 59.3983 10.104C59.1743 10.008 59.0623 9.776 59.0623 9.408C59.0623 9.232 59.1023 9.048 59.1823 8.856C59.2623 8.664 59.3903 8.48 59.5663 8.304C59.6943 8.176 59.8463 8.112 60.0223 8.112C60.1983 8.112 60.3503 8.176 60.4783 8.304ZM59.3743 18.384C59.4703 18.288 59.5183 18.304 59.5183 18.432C59.5183 18.512 59.4943 18.616 59.4463 18.744C59.4143 18.872 59.3743 18.968 59.3263 19.032C59.1663 19.256 58.9743 19.504 58.7503 19.776C58.5423 20.048 58.2943 20.28 58.0063 20.472C57.7183 20.648 57.3743 20.736 56.9743 20.736C56.3823 20.736 55.9743 20.6 55.7503 20.328C55.5263 20.056 55.4143 19.728 55.4143 19.344C55.4143 19.168 55.4303 18.992 55.4623 18.816C55.4943 18.64 55.5343 18.464 55.5823 18.288C55.4223 18.576 55.1743 18.912 54.8383 19.296C54.5023 19.664 54.1903 19.96 53.9023 20.184C53.8383 20.232 53.7743 20.256 53.7103 20.256C53.6143 20.256 53.5663 20.2 53.5663 20.088C53.5663 19.96 53.6143 19.848 53.7103 19.752C54.3823 19.048 54.8943 18.48 55.2463 18.048C55.5983 17.6 55.8703 17.224 56.0623 16.92C56.2543 16.616 56.4383 16.336 56.6143 16.08C56.7583 15.616 56.8863 15.168 56.9983 14.736C57.1263 14.288 57.3183 13.832 57.5743 13.368C57.6543 13.224 57.8143 13.152 58.0543 13.152C58.2143 13.152 58.3583 13.192 58.4863 13.272C58.6143 13.352 58.6783 13.488 58.6783 13.68C58.6783 13.776 58.6543 13.888 58.6063 14.016C58.4303 14.512 58.2383 14.936 58.0303 15.288C57.8383 15.624 57.5823 16.056 57.2623 16.584C56.9263 17.128 56.6543 17.656 56.4463 18.168C56.2543 18.68 56.1583 19.112 56.1583 19.464C56.1583 19.688 56.2063 19.872 56.3023 20.016C56.4143 20.16 56.5743 20.232 56.7823 20.232C57.2303 20.248 57.5743 20.176 57.8143 20.016C58.0543 19.84 58.2543 19.672 58.4143 19.512C58.6223 19.288 58.7983 19.08 58.9423 18.888C59.1023 18.696 59.2463 18.528 59.3743 18.384ZM64.38 18.072C64.172 18.424 63.908 18.808 63.588 19.224C63.268 19.624 62.932 19.968 62.58 20.256C62.244 20.544 61.924 20.688 61.62 20.688C61.124 20.688 60.732 20.664 60.444 20.616C60.172 20.552 59.948 20.464 59.772 20.352C59.468 20.144 59.22 19.872 59.028 19.536C58.836 19.2 58.724 18.856 58.692 18.504C58.676 18.408 58.668 18.312 58.668 18.216C58.668 18.12 58.668 18.032 58.668 17.952C58.668 17.008 58.852 16.176 59.22 15.456C59.588 14.736 60.108 14.304 60.78 14.16C60.988 14.128 61.148 14.216 61.26 14.424C61.372 14.616 61.428 14.88 61.428 15.216C61.428 15.728 61.292 16.28 61.02 16.872C60.908 17.112 60.788 17.344 60.66 17.568C60.548 17.776 60.452 17.944 60.372 18.072C60.164 18.376 60.004 18.584 59.892 18.696C59.796 18.792 59.748 18.888 59.748 18.984C59.748 19.24 59.908 19.488 60.228 19.728C60.548 19.968 61.044 20.088 61.716 20.088C61.972 20.088 62.236 19.976 62.508 19.752C62.78 19.528 63.044 19.248 63.3 18.912C63.572 18.576 63.812 18.24 64.02 17.904C64.116 17.744 64.204 17.664 64.284 17.664C64.38 17.664 64.428 17.736 64.428 17.88C64.428 17.944 64.412 18.008 64.38 18.072ZM60.78 15.048C60.716 14.952 60.58 14.976 60.372 15.12C60.18 15.248 60.004 15.552 59.844 16.032C59.732 16.384 59.676 16.792 59.676 17.256C59.676 17.384 59.676 17.512 59.676 17.64C59.692 17.768 59.708 17.896 59.724 18.024C59.996 17.56 60.188 17.216 60.3 16.992C60.428 16.752 60.524 16.504 60.588 16.248C60.62 16.12 60.668 15.96 60.732 15.768C60.812 15.576 60.852 15.408 60.852 15.264C60.852 15.168 60.828 15.096 60.78 15.048Z" fill="#EA3323"/>
<path d="M4.37501 21L2.97501 19.6L13.225 9.35C12.925 8.65 12.8833 7.85833 13.1 6.975C13.3167 6.09167 13.7917 5.3 14.525 4.6C15.4083 3.71667 16.3917 3.2 17.475 3.05C18.5583 2.9 19.4417 3.16667 20.125 3.85C20.8083 4.53333 21.075 5.41667 20.925 6.5C20.775 7.58333 20.2583 8.56667 19.375 9.45C18.675 10.1833 17.8833 10.6583 17 10.875C16.1167 11.0917 15.325 11.05 14.625 10.75L13.375 12L20.975 19.6L19.575 21L11.975 13.45L4.37501 21ZM7.32501 12.45L4.32501 9.45C3.42501 8.55 2.97501 7.475 2.97501 6.225C2.97501 4.975 3.42501 3.9 4.32501 3L10.525 9.25L7.32501 12.45Z" fill="#EA3323"/>
</svg>
